<svg height='300px' width='300px'  fill="#000000" xmlns="http://www.w3.org/2000/svg" xmlns:xlink="http://www.w3.org/1999/xlink" version="1.1" x="0px" y="0px" viewBox="0 0 100 100" enable-background="new 0 0 100 100" xml:space="preserve"><g><path fill="#000000" d="M25.5,30c0,1,0.6,1.9,1.6,2.6c-0.6-0.9-1-1.9-1-2.9c0-0.6,0.1-1.2,0.3-1.8C25.9,28.5,25.5,29.2,25.5,30z"></path><path fill="#000000" d="M38.9,33.8c-1,0.9-2.3,2.2-3.6,2.2h5.9c0.1-1,0.2-2.3,0.2-4C40.8,32.7,39.9,33.3,38.9,33.8z"></path><path fill="#000000" d="M28.5,33.4c1.4,0.6,3.1,1,5,1c0.4,0,0.9,0,1.3-0.1c-1.4-0.5-2.4-1.8-2.4-3.4c0-2,1.6-3.6,3.6-3.6   s3.6,1.6,3.6,3.6c0,0.8-0.3,1.6-0.8,2.2c1-1,1.7-2.2,1.7-3.6c0-1-0.3-1.9-0.9-2.6c-1.5-0.9-3.6-1.5-6-1.5c-2.4,0-4.6,0.6-6.1,1.6   c-0.5,0.8-0.8,1.7-0.8,2.6C26.6,31.1,27.3,32.4,28.5,33.4z"></path><path fill="#000000" d="M28.4,36c-3.7-1-6.4-4.5-6.4-8.2c0-4.3,3.5-7.9,8.1-8.6c-0.7,0-1.4,0.1-2.2,0.1C22.1,20,17.7,22,18.1,36   H28.4z"></path><path fill="#000000" d="M41.3,31.1c0-0.3,0-0.6-0.1-0.9c-0.3,0.9-0.7,1.7-1.3,2.4C40.6,32.2,41,31.6,41.3,31.1z"></path><path fill="#000000" d="M36.5,34.6c-0.9,0.2-1.9,0.3-3,0.3c-1.1,0-2.1-0.1-3.1-0.3c0.9,0.4,2,0.6,3,0.6   C34.6,35.2,35.6,35,36.5,34.6z"></path><path fill="#000000" d="M22.5,27.8c0,4.2,3.6,8.2,8.2,8.2h2.2c0.7,0,1.3-0.2,2-0.4c-0.4,0.1-0.9,0.1-1.4,0.1c-2.1,0-4-0.7-5.3-1.8   c-2-0.9-3.2-2.3-3.2-3.9c0-1.2,0.8-2.4,2.1-3.2c1.3-1.8,3.7-3.1,6.5-3.1c2.7,0,5.1,1.2,6.4,3c0.3,0.2,0.6,0.4,0.8,0.7   c-0.4-1.7-1.1-3.5-2.3-4.8c-0.9-1-1.9-1.8-3.2-2.4c-1.1-0.4-2.2-0.6-3.5-0.6C26.7,19.5,22.5,23.2,22.5,27.8z"></path><path fill="#000000" d="M40.9,29.5c0.1-0.3,0.1-0.5,0.2-0.8c0-0.2-0.1-0.3-0.1-0.5c-0.1-0.2-0.3-0.3-0.4-0.5   C40.8,28.3,40.9,28.9,40.9,29.5z"></path><path fill="#000000" d="M60.9,26.4c0-1.9,0.6-3.6,1.5-5.1c-2.9,2.4-4.8,6.2-5.4,11l7.3,1.2C62.3,31.9,60.9,29.3,60.9,26.4z"></path><path fill="#000000" d="M71.5,34.8l0.7,0.1c3.5-0.9,6.2-3.9,6.5-7.6c-0.1-0.4-0.2-0.8-0.3-1.1c0,0,0,0.1-0.1,0.1   c0,0.3,0.1,0.6,0.1,0.9C78.5,31.1,75.5,34.3,71.5,34.8z"></path><path fill="#000000" d="M63,26.7c0,0.2,0,0.3,0,0.5c0,4,3.4,7.2,7.5,7.2s7.5-3.2,7.5-7.2c0-0.1,0-0.3,0-0.4   c-1.5,1.4-4.3,2.4-7.4,2.4C67.3,29.2,64.6,28.2,63,26.7z"></path><path fill="#000000" d="M73.4,35.1l6.8,1.1c-0.1-2.1-0.4-4.9-1.1-7.7C78.4,31.6,76.2,34,73.4,35.1z"></path><path fill="#000000" d="M38.6,26c-1.3-1.1-3.1-1.8-5.1-1.8c-2.1,0-3.9,0.7-5.2,1.9c1.4-0.6,3.2-1,5.2-1C35.5,25,37.2,25.4,38.6,26z   "></path><path fill="#000000" d="M93.6,44.7c-1.6-1.7-4-3-7.1-3.8c-0.2-9-1.9-29.9-14.3-32.7C55,4.2,32.9,4.9,21.8,9.6   c-8,3.4-11.6,12.9-12.3,32.7c-3,1.7-5.3,4.7-5.4,9.6l0,1.5C3.9,58,3.8,61.7,6.5,64.5c1.4,1.4,3.6,2.6,6.7,3.4   c2.2,4.9,5.2,8.6,8.9,11c-0.3,0.6-0.6,1.2-0.9,1.9c-1.6,3.3-3.3,6.6-2.4,9c0.3,0.9,1,1.6,1.9,2c1.2,0.5,2.2,0.8,3.1,0.8   c0,0,0,0,0,0c3.3,0,5.3-3.1,6.8-10.5c0.7,0.1,1.4,0.2,2.1,0.2c1.1,0.1,2.3,0.1,3.6,0.2c0,1-0.1,2.1-0.2,3.2c-0.3,2.7-0.6,5.5,1,7.2   c0.9,1,2.3,1.5,4.3,1.5c0.2,0,0.3,0,0.5,0c1.9-0.1,3.5-0.8,4.5-2.2c2.1-2.8,1.5-7.5,1.1-9.5c1.3,0,2.7-0.1,4-0.1   c-0.4,2.6-1.1,8.5,0.4,10.4c0.7,0.8,1.7,1.3,3.1,1.3c1.6,0,3.5-0.5,5.5-1.1c0.9-0.2,1.7-0.5,2.6-0.7c0.9-0.2,1.6-0.8,2.1-1.6   c1.2-2.6-0.5-7.5-1.5-9.8c1.2-0.3,2.4-0.5,3.6-0.9c3.3,7.2,5.3,9.5,8.2,9.5c1.4,0,2.9-0.6,4.6-1.3c1.2-0.5,1.9-1.4,2.2-2.5   c0.8-3.4-2.9-8.7-4.5-10.7c2.6-2.1,4.6-4.8,5.7-8.1c0-0.1,0-0.2,0-0.4c11.1-2.6,12.1-6.9,12.4-13.2c0-0.6,0.1-1.1,0.1-1.7   C96.2,48.9,95.4,46.5,93.6,44.7z M72.1,16.4c9.7,0.8,10.2,20.2,10.2,21c0,0.3-0.1,0.6-0.3,0.8c-0.2,0.2-0.4,0.2-0.7,0.2   c-0.1,0-0.1,0-0.2,0l-25.3-4.2c-0.5-0.1-0.9-0.6-0.8-1.1C55.9,22.4,62.7,15.7,72.1,16.4z M81,42l-6.3,7.1L68.3,42H81z M48.9,42   c-2,2.5-4.2,5-4.9,5.3c-0.5-0.5-1.6-2.8-2.5-5.2L48.9,42z M27.6,17.3c5.5-0.6,9.7,0.7,12.4,3.9c4.8,5.8,3,15.5,3,15.9   c-0.1,0.5-0.5,0.8-1,0.8H17.2c-0.5,0-1-0.4-1-1C15.5,21.7,19.9,18.2,27.6,17.3z M27,42.6l-5.4,6.3l-2.5-6.2L27,42.6z M26.3,90.8   c0,0.1-0.1,0.1-0.2,0.1c0,0-0.1,0-0.1,0l-6.5-3.2c-0.1-0.1-0.2-0.2-0.1-0.3c0.1-0.1,0.2-0.2,0.3-0.1l6.5,3.2   C26.3,90.5,26.4,90.6,26.3,90.8z M28,88.3c0,0.1-0.1,0.1-0.2,0.1c0,0-0.1,0-0.1,0l-7.3-3.6c-0.1-0.1-0.2-0.2-0.1-0.3   c0.1-0.1,0.2-0.2,0.3-0.1l7.3,3.6C28,88.1,28,88.2,28,88.3z M29,84.9C29,84.9,29,84.9,29,84.9l-7.2-3c-0.1-0.1-0.2-0.2-0.1-0.3   c0.1-0.1,0.2-0.2,0.3-0.1l7.1,3c0.1,0.1,0.2,0.2,0.1,0.3C29.2,84.8,29.1,84.9,29,84.9z M46.3,90.3L37.6,91c0,0,0,0,0,0   c-0.1,0-0.2-0.2-0.2-0.3c0-0.1,0.1-0.3,0.2-0.3l8.7-0.7c0.1,0,0.3,0.1,0.3,0.2S46.5,90.3,46.3,90.3z M47.6,87.5   c0,0.3-0.2,0.5-0.5,0.5h-10c-0.3,0-0.5-0.2-0.5-0.5s0.2-0.5,0.5-0.5h10C47.3,87,47.6,87.2,47.6,87.5z M37,84.7   c0-0.1,0.1-0.4,0.2-0.4l9.5-0.3c0,0,0,0,0,0c0.1,0,0.2,0.2,0.2,0.4c0,0.1-0.1,0.4-0.2,0.4L37.2,85c0,0,0,0,0,0   C37.1,85,37,84.8,37,84.7z M64.8,89c0,0.1-0.1,0.3-0.2,0.3l-12.3,1.9c0,0,0,0,0,0c-0.1,0-0.2-0.1-0.2-0.2c0-0.1,0.1-0.3,0.2-0.3   l12.3-1.9C64.7,88.8,64.8,88.9,64.8,89z M64.2,85.8c0.1,0,0.3,0.1,0.3,0.2c0,0.1-0.1,0.3-0.2,0.3L52,88.1c0,0,0,0,0,0   c-0.1,0-0.2-0.1-0.2-0.2c0-0.1,0.1-0.3,0.2-0.3L64.2,85.8z M52,84.6c0-0.1,0.1-0.3,0.2-0.3l10.9-2.1c0.1,0,0.3,0.1,0.3,0.2   c0,0.1-0.1,0.3-0.2,0.3l-10.9,2.1c0,0,0,0,0,0C52.2,84.8,52,84.7,52,84.6z M44.8,79.2c-9.1,0-16.7-1-21.1-1.8   c-0.7-0.4-1.3-0.9-1.9-1.4c7.1,1.4,31.4,5.2,55-2.7c-0.8,0.7-1.8,1.3-2.8,1.9C63.8,78.3,53.6,79.2,44.8,79.2z M81.2,83.8   c0.1,0.1,0,0.3-0.1,0.3l-7.3,3.5c0,0-0.1,0-0.1,0c-0.1,0-0.2-0.1-0.2-0.1c-0.1-0.1,0-0.3,0.1-0.3l7.3-3.5   C81,83.6,81.2,83.7,81.2,83.8z M80.4,80.6c0.1,0.1,0,0.3-0.1,0.3l-8.9,4.9c0,0-0.1,0-0.1,0c-0.1,0-0.2,0-0.2-0.1   c-0.1-0.1,0-0.3,0.1-0.3l8.9-4.9C80.2,80.5,80.4,80.5,80.4,80.6z M78.1,77.8c0.1-0.1,0.3,0,0.3,0.1c0.1,0.1,0,0.3-0.1,0.3l-8.6,3.8   c0,0-0.1,0-0.1,0c-0.1,0-0.2-0.1-0.2-0.1c-0.1-0.1,0-0.3,0.1-0.3L78.1,77.8z M79.8,70.1c-8.3,3.1-19.2,4.7-31.9,4.7   c-9,0-19-0.8-29.6-2.4c-0.3-0.4-0.5-0.7-0.8-1.1c26.7,4.1,49.1,3.1,63.2-2.6C80.4,69.1,80.1,69.6,79.8,70.1z M19.4,66.9l6.4-5.7   l4.1,5.8l-7.3,0h-2.8C19.7,67,19.5,66.9,19.4,66.9z M46.2,66.9l5.9-5.9l3.8,5.8L46.2,66.9z M71.3,66.4l3.4-5.1l3.7,4.2   C76.3,65.9,74,66.2,71.3,66.4z M94,51.6c0,0.6-0.1,1.2-0.1,1.8c-0.3,5.6-0.5,9.6-14.3,12L75,60.2c-0.1-0.1-0.3-0.2-0.4-0.2   c-0.2,0-0.3,0.1-0.4,0.2l-4.2,6.3c-0.9,0.1-1.8,0.2-2.8,0.2l-10.2,0l-4.4-6.9c-0.1-0.1-0.2-0.2-0.4-0.2c-0.1,0-0.3,0-0.4,0.1   l-7.1,7l-13.7,0.1l-4.9-6.8C26.2,60,26,60,25.9,59.9c-0.1,0-0.3,0-0.4,0.1l-7.4,6.7C12.8,66,9.7,64.8,8,63.1   c-2.1-2.2-2-5.3-1.9-9.6l0-1.5c0.1-4.1,1.9-6.6,4.8-8.1c0,0,0,0,0,0c0.8-0.4,1.6-0.7,2.5-1l4.7-0.1l3,7.3c0.1,0.2,0.2,0.3,0.4,0.3   c0,0,0.1,0,0.1,0c0.1,0,0.3-0.1,0.4-0.2l6.5-7.7l12-0.3c1.1,2.8,2.4,5.9,3.3,6.1c0,0,0.2,0,0.2,0c1.1,0,4.3-3.9,6.2-6.4l2.6,0   c0,0,0,0,0.1,0c5.7,0,10.4-0.1,14.1-0.1l7.5,8.3c0.1,0.1-0.4,0.1,0.6,0.1v0c0,0,0.1-0.1,0.2-0.2l7.1-8.1c4.7,0.6,8,1.9,9.9,3.9   C93.6,47.5,94.1,49.3,94,51.6z"></path><path fill="#000000" d="M70.5,19.9c-3.5,0-6.4,2.3-7.3,5.4c1.1,1.6,4,2.8,7.3,2.8c3.2,0,6.1-1.1,7.2-2.7C77,22.3,74,19.9,70.5,19.9   z M71.4,27.5c-2,0-3.6-1.6-3.6-3.6s1.6-3.6,3.6-3.6c2,0,3.6,1.6,3.6,3.6S73.4,27.5,71.4,27.5z"></path><path fill="#000000" d="M61.8,24.1c-0.2,0.7-0.3,1.5-0.3,2.3c0,3.1,1.6,5.8,4,7.4l1.4,0.2c-2.6-1.3-4.3-3.9-4.3-6.9   c0-0.3,0-0.7,0.1-1C62.1,25.5,61.8,24.8,61.8,24.1z"></path><path fill="#000000" d="M77.3,23.2c-0.4-0.8-0.8-1.5-1.3-2.2c-0.6-0.3-1.4-0.6-2.2-0.8C75.3,20.8,76.5,21.9,77.3,23.2z"></path><path fill="#000000" d="M67.1,20.2c-2.5,0.7-4.3,2.1-4.3,3.7c0,0.3,0.1,0.5,0.2,0.8C63.6,22.8,65.1,21.1,67.1,20.2z"></path><path fill="#000000" d="M74.1,19.2c-0.7-0.4-1.4-0.7-2.2-0.7c-2.9-0.3-5.6,0.4-7.8,1.7c-0.2,0.2-0.5,0.5-0.7,0.8   c1.6-1.3,4.2-2.2,7.2-2.2C71.8,18.7,73,18.9,74.1,19.2z"></path></g></svg>