<svg width="305" height="51" viewBox="0 0 305 51" fill="none" xmlns="http://www.w3.org/2000/svg">
<rect width="305" height="51" fill="none"/>
<path d="M1.78516 50.2914C1.78516 43.8489 4.44375 37.6703 9.17607 33.1148C13.9084 28.5593 20.3268 26 27.0193 26C33.7118 26 40.1302 28.5593 44.8625 33.1148C49.5949 37.6703 52.2534 43.8489 52.2534 50.2914" stroke="#455E67" stroke-width="0.91" stroke-linecap="round" stroke-linejoin="round"/>
<path d="M9.58386 50.2909C9.58386 45.8443 11.4188 41.5799 14.685 38.4357C17.9511 35.2915 22.381 33.5251 27.0001 33.5251C31.6191 33.5251 36.049 35.2915 39.3152 38.4357C42.5814 41.5799 44.4163 45.8443 44.4163 50.2909" stroke="#455E67" stroke-width="0.91" stroke-linecap="round" stroke-linejoin="round"/>
<path d="M17.7307 50.2907C17.7307 47.9192 18.7093 45.6449 20.4513 43.968C22.1932 42.2912 24.5558 41.3491 27.0193 41.3491C29.4828 41.3491 31.8454 42.2912 33.5874 43.968C35.3294 45.6449 36.308 47.9192 36.308 50.2907" stroke="#455E67" stroke-width="0.91" stroke-linecap="round" stroke-linejoin="round"/>
<path d="M0.0192871 1C6.7118 1 13.1302 3.55928 17.8625 8.1148C22.5948 12.6703 25.2534 18.8489 25.2534 25.2914" stroke="#455E67" stroke-width="0.91" stroke-linecap="round" stroke-linejoin="round"/>
<path d="M0 8.52515C4.61906 8.52515 9.04896 10.2915 12.3151 13.4357C15.5813 16.5799 17.4162 20.8443 17.4162 25.2909" stroke="#455E67" stroke-width="0.91" stroke-linecap="round" stroke-linejoin="round"/>
<path d="M0.0194092 16.3491C2.48291 16.3491 4.84551 17.2912 6.58747 18.968C8.32943 20.6449 9.30806 22.9192 9.30806 25.2907" stroke="#455E67" stroke-width="0.91" stroke-linecap="round" stroke-linejoin="round"/>
<path d="M52.2534 50.2909C52.2534 43.8485 54.912 37.6698 59.6443 33.1143C64.3766 28.5588 70.7951 25.9995 77.4876 25.9995C84.1801 25.9995 90.5985 28.5588 95.3308 33.1143C100.063 37.6698 102.722 43.8485 102.722 50.2909" stroke="#455E67" stroke-width="0.91" stroke-linecap="round" stroke-linejoin="round"/>
<path d="M60.052 50.2909C60.052 45.8443 61.8869 41.5799 65.1531 38.4357C68.4193 35.2915 72.8491 33.5251 77.4682 33.5251C82.0873 33.5251 86.5172 35.2915 89.7833 38.4357C93.0495 41.5799 94.8844 45.8443 94.8844 50.2909" stroke="#455E67" stroke-width="0.91" stroke-linecap="round" stroke-linejoin="round"/>
<path d="M68.2183 50.2907C68.3273 47.9923 69.3526 45.8228 71.0808 44.2334C72.809 42.644 75.1071 41.7571 77.4972 41.7571C79.8873 41.7571 82.1855 42.644 83.9137 44.2334C85.6419 45.8228 86.6671 47.9923 86.7762 50.2907" stroke="#455E67" stroke-width="0.91" stroke-linecap="round" stroke-linejoin="round"/>
<path d="M102.722 50.2909C102.722 43.8485 105.38 37.6698 110.113 33.1143C114.845 28.5588 121.263 25.9995 127.956 25.9995C134.648 25.9995 141.067 28.5588 145.799 33.1143C150.531 37.6698 153.19 43.8485 153.19 50.2909" stroke="#455E67" stroke-width="0.91" stroke-linecap="round" stroke-linejoin="round"/>
<path d="M110.52 50.2909C110.52 45.8443 112.355 41.5799 115.621 38.4357C118.888 35.2915 123.317 33.5251 127.936 33.5251C132.556 33.5251 136.985 35.2915 140.252 38.4357C143.518 41.5799 145.353 45.8443 145.353 50.2909" stroke="#455E67" stroke-width="0.91" stroke-linecap="round" stroke-linejoin="round"/>
<path d="M118.687 50.2907C118.796 47.9923 119.821 45.8228 121.549 44.2334C123.277 42.644 125.575 41.7571 127.965 41.7571C130.356 41.7571 132.654 42.644 134.382 44.2334C136.11 45.8228 137.135 47.9923 137.244 50.2907" stroke="#455E67" stroke-width="0.91" stroke-linecap="round" stroke-linejoin="round"/>
<path d="M153.19 50.2909C153.19 43.8485 155.849 37.6698 160.581 33.1143C165.313 28.5588 171.732 25.9995 178.424 25.9995C185.117 25.9995 191.535 28.5588 196.267 33.1143C201 37.6698 203.658 43.8485 203.658 50.2909" stroke="#455E67" stroke-width="0.91" stroke-linecap="round" stroke-linejoin="round"/>
<path d="M160.989 50.2909C160.989 45.8443 162.823 41.5799 166.09 38.4357C169.356 35.2915 173.786 33.5251 178.405 33.5251C183.024 33.5251 187.454 35.2915 190.72 38.4357C193.986 41.5799 195.821 45.8443 195.821 50.2909" stroke="#455E67" stroke-width="0.91" stroke-linecap="round" stroke-linejoin="round"/>
<path d="M169.155 50.2907C169.264 47.9923 170.289 45.8228 172.017 44.2334C173.745 42.644 176.044 41.7571 178.434 41.7571C180.824 41.7571 183.122 42.644 184.85 44.2334C186.578 45.8228 187.604 47.9923 187.713 50.2907" stroke="#455E67" stroke-width="0.91" stroke-linecap="round" stroke-linejoin="round"/>
<path d="M203.658 50.2905C203.658 43.8456 206.318 37.6645 211.052 33.1073C215.786 28.55 222.207 25.9897 228.902 25.9897C235.597 25.9897 242.018 28.55 246.752 33.1073C251.486 37.6645 254.146 43.8456 254.146 50.2905" stroke="#455E67" stroke-width="0.91" stroke-linecap="round" stroke-linejoin="round"/>
<path d="M211.457 50.2909C211.457 45.8443 213.292 41.5799 216.558 38.4357C219.824 35.2915 224.254 33.5251 228.873 33.5251C233.492 33.5251 237.922 35.2915 241.188 38.4357C244.454 41.5799 246.289 45.8443 246.289 50.2909" stroke="#455E67" stroke-width="0.91" stroke-linecap="round" stroke-linejoin="round"/>
<path d="M219.623 50.2907C219.732 47.9923 220.758 45.8228 222.486 44.2334C224.214 42.644 226.512 41.7571 228.902 41.7571C231.292 41.7571 233.59 42.644 235.319 44.2334C237.047 45.8228 238.072 47.9923 238.181 50.2907" stroke="#455E67" stroke-width="0.91" stroke-linecap="round" stroke-linejoin="round"/>
<path d="M254.146 50.2909C254.146 43.8485 256.805 37.6698 261.537 33.1143C266.269 28.5588 272.688 25.9995 279.38 25.9995C286.073 25.9995 292.491 28.5588 297.223 33.1143C301.956 37.6698 304.614 43.8485 304.614 50.2909" stroke="#455E67" stroke-width="0.91" stroke-linecap="round" stroke-linejoin="round"/>
<path d="M261.925 50.2909C261.925 45.8443 263.76 41.5799 267.026 38.4357C270.293 35.2915 274.722 33.5251 279.342 33.5251C283.961 33.5251 288.39 35.2915 291.657 38.4357C294.923 41.5799 296.758 45.8443 296.758 50.2909" stroke="#455E67" stroke-width="0.91" stroke-linecap="round" stroke-linejoin="round"/>
<path d="M270.169 50.2907C270.278 47.9923 271.303 45.8228 273.031 44.2334C274.76 42.644 277.058 41.7571 279.448 41.7571C281.838 41.7571 284.136 42.644 285.864 44.2334C287.593 45.8228 288.618 47.9923 288.727 50.2907" stroke="#455E67" stroke-width="0.91" stroke-linecap="round" stroke-linejoin="round"/>
<path d="M280.785 25.3002C280.785 18.8577 283.444 12.6791 288.176 8.12359C292.908 3.56807 299.327 1.00879 306.019 1.00879" stroke="#455E67" stroke-width="0.91" stroke-linecap="round" stroke-linejoin="round"/>
<path d="M288.564 25.3002C288.564 20.8536 290.399 16.5892 293.666 13.445C296.932 10.3008 301.362 8.53442 305.981 8.53442" stroke="#455E67" stroke-width="0.91" stroke-linecap="round" stroke-linejoin="round"/>
<path d="M296.808 25.3C296.917 23.0016 297.942 20.8321 299.671 19.2427C301.399 17.6533 303.697 16.7664 306.087 16.7664" stroke="#455E67" stroke-width="0.91" stroke-linecap="round" stroke-linejoin="round"/>
<path d="M27.0193 25.3104C27.0193 18.8679 29.6779 12.6892 34.4102 8.13361C39.1425 3.57805 45.5609 1.0188 52.2534 1.0188C58.9459 1.0188 65.3643 3.57805 70.0967 8.13361C74.829 12.6892 77.4876 18.8679 77.4876 25.3104" stroke="#455E67" stroke-width="0.91" stroke-linecap="round" stroke-linejoin="round"/>
<path d="M34.8179 25.3096C34.8179 20.8631 36.6528 16.5987 39.919 13.4545C43.1851 10.3103 47.615 8.54395 52.2341 8.54395C56.8531 8.54395 61.283 10.3103 64.5492 13.4545C67.8154 16.5987 69.6503 20.8631 69.6503 25.3096" stroke="#455E67" stroke-width="0.91" stroke-linecap="round" stroke-linejoin="round"/>
<path d="M42.9841 25.3098C43.0932 23.0114 44.1184 20.8419 45.8466 19.2525C47.5748 17.6631 49.873 16.7761 52.2631 16.7761C54.6532 16.7761 56.9514 17.6631 58.6796 19.2525C60.4078 20.8419 61.433 23.0114 61.5421 25.3098" stroke="#455E67" stroke-width="0.91" stroke-linecap="round" stroke-linejoin="round"/>
<path d="M77.4875 25.3102C77.4875 18.8676 80.1461 12.6889 84.8785 8.13337C89.6108 3.5778 96.0292 1.01855 102.722 1.01855C109.414 1.01855 115.833 3.5778 120.565 8.13337C125.297 12.6889 127.956 18.8676 127.956 25.3102" stroke="#455E67" stroke-width="0.91" stroke-linecap="round" stroke-linejoin="round"/>
<path d="M85.2863 25.3096C85.2863 20.8631 87.1212 16.5987 90.3873 13.4545C93.6535 10.3103 98.0834 8.54395 102.702 8.54395C107.322 8.54395 111.751 10.3103 115.018 13.4545C118.284 16.5987 120.119 20.8631 120.119 25.3096" stroke="#455E67" stroke-width="0.91" stroke-linecap="round" stroke-linejoin="round"/>
<path d="M93.4524 25.3098C93.5615 23.0113 94.5867 20.8418 96.3149 19.2524C98.0431 17.663 100.341 16.7761 102.731 16.7761C105.121 16.7761 107.42 17.663 109.148 19.2524C110.876 20.8418 111.901 23.0113 112.01 25.3098" stroke="#455E67" stroke-width="0.91" stroke-linecap="round" stroke-linejoin="round"/>
<path d="M127.956 25.3102C127.956 18.8676 130.615 12.6889 135.347 8.13337C140.079 3.5778 146.498 1.01855 153.19 1.01855C159.883 1.01855 166.301 3.5778 171.033 8.13337C175.766 12.6889 178.424 18.8676 178.424 25.3102" stroke="#455E67" stroke-width="0.91" stroke-linecap="round" stroke-linejoin="round"/>
<path d="M135.755 25.3096C135.755 20.8631 137.59 16.5987 140.856 13.4545C144.122 10.3103 148.552 8.54395 153.171 8.54395C157.79 8.54395 162.22 10.3103 165.486 13.4545C168.752 16.5987 170.587 20.8631 170.587 25.3096" stroke="#455E67" stroke-width="0.91" stroke-linecap="round" stroke-linejoin="round"/>
<path d="M143.921 25.3098C144.03 23.0113 145.055 20.8418 146.783 19.2524C148.512 17.663 150.81 16.7761 153.2 16.7761C155.59 16.7761 157.888 17.663 159.616 19.2524C161.345 20.8418 162.37 23.0113 162.479 25.3098" stroke="#455E67" stroke-width="0.91" stroke-linecap="round" stroke-linejoin="round"/>
<path d="M178.424 25.3097C178.424 18.8647 181.084 12.6836 185.818 8.12632C190.552 3.56902 196.973 1.00879 203.668 1.00879C210.363 1.00879 216.784 3.56902 221.518 8.12632C226.252 12.6836 228.912 18.8647 228.912 25.3097" stroke="#455E67" stroke-width="0.91" stroke-linecap="round" stroke-linejoin="round"/>
<path d="M186.223 25.3096C186.223 20.8631 188.058 16.5987 191.324 13.4545C194.59 10.3103 199.02 8.54395 203.639 8.54395C208.258 8.54395 212.688 10.3103 215.954 13.4545C219.22 16.5987 221.055 20.8631 221.055 25.3096" stroke="#455E67" stroke-width="0.91" stroke-linecap="round" stroke-linejoin="round"/>
<path d="M194.389 25.3098C194.498 23.0114 195.523 20.8419 197.252 19.2525C198.98 17.6631 201.278 16.7761 203.668 16.7761C206.058 16.7761 208.356 17.6631 210.085 19.2525C211.813 20.8419 212.838 23.0114 212.947 25.3098" stroke="#455E67" stroke-width="0.91" stroke-linecap="round" stroke-linejoin="round"/>
<path d="M228.912 25.3102C228.912 18.8676 231.57 12.6889 236.303 8.13337C241.035 3.5778 247.453 1.01855 254.146 1.01855C260.838 1.01855 267.257 3.5778 271.989 8.13337C276.721 12.6889 279.38 18.8676 279.38 25.3102" stroke="#455E67" stroke-width="0.91" stroke-linecap="round" stroke-linejoin="round"/>
<path d="M236.691 25.3096C236.691 20.8631 238.526 16.5987 241.792 13.4545C245.058 10.3103 249.488 8.54395 254.107 8.54395C258.726 8.54395 263.156 10.3103 266.422 13.4545C269.688 16.5987 271.523 20.8631 271.523 25.3096" stroke="#455E67" stroke-width="0.91" stroke-linecap="round" stroke-linejoin="round"/>
<path d="M244.857 25.3098C244.966 23.0113 245.991 20.8418 247.719 19.2524C249.448 17.663 251.746 16.7761 254.136 16.7761C256.526 16.7761 258.824 17.663 260.552 19.2524C262.281 20.8418 263.306 23.0113 263.415 25.3098" stroke="#455E67" stroke-width="0.91" stroke-linecap="round" stroke-linejoin="round"/>
</svg>
