<svg width="31" height="324" viewBox="0 0 31 324" fill="none" xmlns="http://www.w3.org/2000/svg">
<path d="M15.4865 0.280884L20.9809 10.3805L31 15.919L20.9809 21.4304L15.4865 31.5571L10.0191 21.4304L0 15.919L10.0191 10.3805L15.4865 0.280884Z" fill="#ED5B54"/>
<path d="M15.4865 58.5981L20.9809 68.6977L31 74.2363L20.9809 79.7477L15.4865 89.8745L10.0191 79.7477L0 74.2363L10.0191 68.6977L15.4865 58.5981Z" fill="#ED5B54"/>
<path d="M15.4865 116.916L20.9809 127.015L31 132.554L20.9809 138.065L15.4865 148.192L10.0191 138.065L0 132.554L10.0191 127.015L15.4865 116.916Z" fill="#ED5B54"/>
<path d="M15.4865 175.233L20.9809 185.332L31 190.871L20.9809 196.382L15.4865 206.509L10.0191 196.382L0 190.871L10.0191 185.332L15.4865 175.233Z" fill="#ED5B54"/>
<path d="M15.4865 233.55L20.9809 243.65L31 249.188L20.9809 254.7L15.4865 264.826L10.0191 254.7L0 249.188L10.0191 243.65L15.4865 233.55Z" fill="#ED5B54"/>
<path d="M15.4865 291.867L20.9809 301.967L31 307.506L20.9809 313.017L15.4865 323.144L10.0191 313.017L0 307.506L10.0191 301.967L15.4865 291.867Z" fill="#ED5B54"/>
</svg>
